<?xml version="1.0" standalone="no"?><!DOCTYPE svg PUBLIC "-//W3C//DTD SVG 1.1//EN" "http://www.w3.org/Graphics/SVG/1.1/DTD/svg11.dtd"><svg t="1589188212912" class="icon" viewBox="0 0 1024 1024" version="1.1" xmlns="http://www.w3.org/2000/svg" p-id="2340" xmlns:xlink="http://www.w3.org/1999/xlink" width="200" height="200"><defs><style type="text/css"></style></defs><path d="M522.99696 71.721485c-212.005508 0-388.744815 150.962224-428.606685 351.252923L62.427306 422.974407c-7.150864 0-13.616112 4.253884-16.445554 10.821463-2.830465 6.566556-1.481747 14.18814 3.429099 19.385513l36.865629 39.017642c-0.204661 5.493108-0.310062 11.010775-0.310062 16.553001 0 241.364163 195.664332 437.029518 437.029518 437.029518 241.364163 0 437.029518-195.665355 437.029518-437.029518C960.026478 267.385816 764.361123 71.721485 522.99696 71.721485zM104.052333 458.790124l23.213701 0c0.00307-0.023536 0.00614-0.047072 0.00921-0.070608l1.721201 0c24.602328-195.70731 191.620225-347.093183 394.000516-347.093183 107.048061 0 204.199729 42.360783 275.618315 111.227244L610.389356 222.853577c-27.644617-8.442276-56.985876-12.994965-87.392396-12.994965-30.40652 0-59.747779 4.554736-87.392396 12.994965l-75.290777 0c-6.407943 0-11.602246 5.194302-11.602246 11.602246l0 31.466666c-62.596663 45.007053-107.085924 113.612571-120.43393 192.797028l0.073678 0c-0.004093 0.023536-0.008186 0.047072-0.01228 0.070608l49.03581 0-8.596795 9.099239c0.004093-0.027629 0.008186-0.056282 0.01228-0.084934l-44.605917 47.210231c0 0.022513 0.001023 0.045025 0.002047 0.068562l-33.507138 35.461653-63.97301-67.706031c0.001023-0.022513 0.002047-0.045025 0.004093-0.067538L104.052333 458.790124zM780.447497 508.751003c0 142.185326-115.26521 257.450537-257.450537 257.450537-47.967478 0-92.860944-13.133112-131.308605-35.978423L391.688355 287.278889l0-30.658254 79.012541 0 104.591103 0 108.281145 0 96.233762 0 0 99.157347 0 134.918829 0 18.055215L780.447497 508.752026zM335.377862 433.79587c-2.829442-6.566556-9.29469-10.821463-16.445554-10.821463l-38.71986 0c14.142092-40.030715 37.892005-75.521021 68.499094-103.687524l0 378.933355c-47.851844-44.040029-78.982866-105.966427-82.770122-175.178765l66.007343-69.861114C336.859609 447.984011 338.207303 440.362426 335.377862 433.79587zM522.99696 905.875672c-210.501248 0-382.746194-163.780157-396.266116-370.862539l50.931996 53.905724c3.38305 3.580548 8.091282 5.608741 13.016455 5.608741s9.634428-2.028193 13.016455-5.608741l25.215288-26.686802c25.210172 139.54929 147.270135 245.411339 294.084898 245.411339 165.073616 0 298.892391-133.818775 298.892391-298.892391L821.888328 247.273756c61.161988 69.855998 98.232279 161.335479 98.232279 261.477246C920.12163 728.077244 742.323201 905.875672 522.99696 905.875672z" p-id="2341"></path><path d="M440.803983 337.970408l71.195505 0 0 55.256488-71.195505 0 0-55.256488Z" p-id="2342"></path><path d="M545.176099 337.970408l184.185906 0 0 55.256488-184.185906 0 0-55.256488Z" p-id="2343"></path><path d="M440.803983 447.713858l71.194482 0 0 55.256488-71.194482 0 0-55.256488Z" p-id="2344"></path><path d="M545.175075 447.713858l184.185906 0 0 55.256488-184.185906 0 0-55.256488Z" p-id="2345"></path><path d="M440.803983 557.458331l71.194482 0 0 55.255465-71.194482 0 0-55.255465Z" p-id="2346"></path><path d="M545.175075 557.458331l184.185906 0 0 55.255465-184.185906 0 0-55.255465Z" p-id="2347"></path></svg>